<svg xmlns="http://www.w3.org/2000/svg" viewBox="0 0 180 180" role="img" aria-label="Chan Tea logo">
  <defs>
    <linearGradient id="orange" x1="0" x2="1" y1="0" y2="1">
      <stop offset="0" stop-color="#ff7a00"/>
      <stop offset="1" stop-color="#ef5a12"/>
    </linearGradient>
  </defs>
  <path d="M112 21l10-12" fill="none" stroke="#f26419" stroke-width="7" stroke-linecap="round"/>
  <rect x="55" y="30" width="70" height="13" rx="6.5" fill="url(#orange)"/>
  <rect x="47" y="47" width="86" height="14" rx="7" fill="url(#orange)"/>
  <path d="M58 66h64l-6 50H64z" fill="url(#orange)"/>
  <path d="M59 124h62c6 0 10 4 10 10v22H49v-22c0-6 4-10 10-10z" fill="url(#orange)"/>
  <path d="M73 92c10-17 30-23 45-14-4 18-20 32-37 29-9-1-13-7-8-15z" fill="#fff"/>
  <path d="M78 103c10-11 21-17 34-20" fill="none" stroke="#f26419" stroke-width="5" stroke-linecap="round"/>
  <path d="M82 106c-3-8-8-14-15-18" fill="none" stroke="#f26419" stroke-width="5" stroke-linecap="round"/>
</svg>